<?xml version="1.0" encoding="utf-8"?>
<!-- Generator: Adobe Illustrator 27.5.0, SVG Export Plug-In . SVG Version: 6.00 Build 0)  -->
<svg version="1.1" id="Background" xmlns="http://www.w3.org/2000/svg" xmlns:xlink="http://www.w3.org/1999/xlink" x="0px" y="0px"
	 viewBox="0 0 800 1200" style="enable-background:new 0 0 800 1200;" xml:space="preserve">
<g>
	<path style="fill:none;" d="M54.346,660.463c-0.071,0.178-0.141,0.356-0.212,0.533C54.205,660.819,54.276,660.641,54.346,660.463z"
		/>
	<path style="fill:none;" d="M421.257,1117.677c0.028,0.187,0.057,0.374,0.085,0.562
		C421.314,1118.052,421.285,1117.864,421.257,1117.677z"/>
	<path style="fill:none;" d="M424.105,1138.579c0.003,0.026,0.006,0.052,0.009,0.078
		C424.111,1138.631,424.108,1138.605,424.105,1138.579z"/>
	<path style="fill:none;" d="M57.059,653.391c-0.164,0.442-0.332,0.882-0.498,1.323C56.726,654.273,56.895,653.834,57.059,653.391z"
		/>
	<path style="fill:none;" d="M599.194,921.443c2.565,6.157,5.148,12.313,7.744,18.468
		C604.341,933.755,601.758,927.6,599.194,921.443z"/>
	<path style="fill:none;" d="M419.687,1107.595c0.026,0.159,0.05,0.319,0.076,0.478
		C419.738,1107.914,419.713,1107.755,419.687,1107.595z"/>
	<path style="fill:none;" d="M2.315,751.438c0.444-0.598,0.884-1.199,1.325-1.799c-0.228,0.311-0.451,0.626-0.68,0.936
		C2.747,750.864,2.529,751.15,2.315,751.438z"/>
	<path style="fill:none;" d="M609.539,946.066c2.975,7.03,5.966,14.061,8.963,21.093
		C615.504,960.127,612.514,953.096,609.539,946.066z"/>
	<path style="fill:none;" d="M415.95,1086.395c0.113,0.595,0.226,1.191,0.338,1.787
		C416.176,1087.586,416.064,1086.99,415.95,1086.395z"/>
	<path style="fill:none;" d="M411.707,1065.586c0.147,0.674,0.297,1.347,0.442,2.022
		C412.003,1066.934,411.853,1066.26,411.707,1065.586z"/>
	<path style="fill:none;" d="M7.413,744.444c-0.106,0.148-0.214,0.295-0.32,0.443C7.2,744.74,7.307,744.592,7.413,744.444z"/>
	<path style="fill:none;" d="M414.095,1076.918c0.059,0.291,0.115,0.582,0.173,0.873
		C414.21,1077.5,414.154,1077.209,414.095,1076.918z"/>
	<path style="fill:none;" d="M621.064,973.167c1.048,2.456,2.096,4.913,3.144,7.369C623.159,978.08,622.111,975.623,621.064,973.167
		z"/>
	<path style="fill:none;" d="M659.989,1065.71c1.874,4.609,3.735,9.223,5.582,13.842
		C663.724,1074.932,661.863,1070.319,659.989,1065.71z"/>
	<path style="fill:none;" d="M652.884,1048.401c1.755,4.237,3.5,8.479,5.235,12.723
		C656.384,1056.88,654.638,1052.639,652.884,1048.401z"/>
	<path style="fill:none;" d="M681.968,1121.973c7.883,21.193,15.307,42.534,22.066,64.072
		C697.275,1164.507,689.85,1143.166,681.968,1121.973z"/>
	<path style="fill:none;" d="M676.936,1108.619c1.137,2.978,2.264,5.958,3.383,8.942
		C679.2,1114.577,678.072,1111.597,676.936,1108.619z"/>
	<path style="fill:none;" d="M409.519,1055.832c0.192,0.831,0.381,1.663,0.57,2.494
		C409.899,1057.495,409.711,1056.663,409.519,1055.832z"/>
	<path style="fill:none;" d="M671.624,1094.862c1.52,3.891,3.027,7.785,4.521,11.685
		C674.651,1102.648,673.144,1098.753,671.624,1094.862z"/>
	<path style="fill:none;" d="M628.801,991.301c6.217,14.577,12.423,29.173,18.548,43.806
		C641.224,1020.474,635.018,1005.878,628.801,991.301z"/>
	
		<linearGradient id="SVGID_1_" gradientUnits="userSpaceOnUse" x1="4311.8989" y1="4315.0894" x2="4617.8169" y2="4561.3159" gradientTransform="matrix(0 -1 -1 0 4583.3076 4730.0693)">
		<stop  offset="0" style="stop-color:#D5B5BA"/>
		<stop  offset="1" style="stop-color:#DB9EA7"/>
	</linearGradient>
	<path style="fill:url(#SVGID_1_);" d="M0,0h470.593c-4.672,8.912-9.764,17.498-15.24,25.648
		c-46.773,69.614-115.41,116.027-180.029,164.896c-64.618,48.87-129.315,105.251-160.969,184.701c-1.06,2.66-2.077,5.333-3.056,8.02
		c-0.979,2.687-1.918,5.387-2.82,8.1c-3.158,9.495-5.865,19.142-8.228,28.907c-1.35,5.58-2.588,11.199-3.733,16.849
		c-0.286,1.413-0.567,2.827-0.842,4.244c-0.825,4.249-1.602,8.515-2.337,12.795c-0.49,2.853-0.962,5.713-1.419,8.579
		c-0.456,2.865-0.897,5.736-1.325,8.611c-0.428,2.876-0.842,5.755-1.246,8.639c-0.808,5.767-1.573,11.55-2.315,17.341
		c-2.042,15.925-3.912,31.915-6.025,47.832c-0.384,2.894-0.776,5.785-1.179,8.673c-1.41,10.109-2.949,20.178-4.723,30.171
		c-1.014,5.71-2.105,11.396-3.293,17.051c-0.594,2.827-1.212,5.647-1.857,8.458c-0.645,2.81-1.317,5.613-2.018,8.406
		c-2.453,9.774-5.264,19.433-8.54,28.939c-0.754,2.189-1.538,4.365-2.34,6.533c-0.164,0.443-0.333,0.882-0.498,1.323
		c-0.722,1.924-1.457,3.842-2.215,5.749c-0.071,0.178-0.141,0.356-0.212,0.533c-11.869,29.697-28.108,57.444-46.721,83.448
		c-0.106,0.148-0.213,0.295-0.32,0.443c-1.141,1.591-2.295,3.173-3.453,4.751c-0.441,0.6-0.881,1.201-1.325,1.799
		c-0.579,0.783-1.164,1.561-1.746,2.341C0.38,754.031,0.19,754.283,0,754.536V0z"/>
	
		<linearGradient id="SVGID_00000176014216240911370970000013536418124011430320_" gradientUnits="userSpaceOnUse" x1="4008.7742" y1="3904.2683" x2="4165.7974" y2="4364.1206" gradientTransform="matrix(0 -1 -1 0 4583.3076 4730.0693)">
		<stop  offset="0" style="stop-color:#D897A1"/>
		<stop  offset="1" style="stop-color:#E0BAC0"/>
	</linearGradient>
	<path style="fill:url(#SVGID_00000176014216240911370970000013536418124011430320_);" d="M2.96,750.575
		c0.229-0.31,0.452-0.625,0.68-0.936c1.16-1.578,2.311-3.161,3.453-4.751c0.106-0.148,0.214-0.295,0.32-0.443
		c18.521-25.825,34.692-53.25,46.721-83.448c0.071-0.177,0.141-0.355,0.212-0.533c0.755-1.905,1.493-3.821,2.215-5.749
		c0.166-0.441,0.334-0.881,0.498-1.323c0.799-2.165,1.584-4.339,2.34-6.533c3.276-9.506,6.087-19.165,8.54-28.939
		c0.701-2.793,1.373-5.595,2.018-8.406c0.645-2.811,1.263-5.63,1.857-8.458c1.188-5.655,2.279-11.34,3.293-17.051
		c1.775-9.993,3.313-20.062,4.723-30.171c0.403-2.888,0.795-5.779,1.179-8.673c2.113-15.917,3.983-31.906,6.025-47.832
		c0.742-5.791,1.507-11.574,2.315-17.341c0.404-2.884,0.818-5.764,1.246-8.639c0.427-2.875,0.868-5.746,1.325-8.611
		c0.456-2.865,0.929-5.725,1.419-8.579c0.735-4.28,1.511-8.546,2.337-12.795c0.275-1.417,0.556-2.831,0.842-4.244
		c1.145-5.65,2.383-11.268,3.733-16.849c2.363-9.765,5.07-19.413,8.228-28.907c0.902-2.712,1.841-5.413,2.82-8.1
		c0.979-2.687,1.996-5.36,3.056-8.02c31.654-79.45,96.351-135.831,160.969-184.701c64.618-48.869,133.256-95.282,180.029-164.896
		C460.8,17.542,465.943,8.949,470.707,0h176.93c-7.519,26.479-17.815,52.082-30.17,75.747
		c-44.151,84.571-110.852,151.052-171.911,221.428S326.402,447.001,306.849,542.342c-34.918,170.252,59.435,335.892,100.525,504.431
		c0.735,3.014,1.446,6.035,2.145,9.058c0.192,0.831,0.381,1.663,0.57,2.494c0.551,2.417,1.09,4.837,1.618,7.26
		c0.147,0.674,0.297,1.348,0.442,2.022c0.666,3.099,1.317,6.202,1.947,9.31c0.059,0.291,0.115,0.582,0.173,0.873
		c0.577,2.864,1.137,5.732,1.682,8.604c0.113,0.595,0.226,1.191,0.338,1.787c1.211,6.455,2.346,12.926,3.399,19.414
		c0.026,0.159,0.051,0.319,0.076,0.478c0.517,3.198,1.015,6.399,1.493,9.604c0.028,0.187,0.057,0.375,0.085,0.562
		c1.006,6.765,1.927,13.546,2.764,20.34c0.003,0.026,0.006,0.052,0.009,0.078c2.503,20.355,4.242,40.825,5.236,61.343H0V754.541
		c0.19-0.254,0.379-0.508,0.569-0.763c0.584-0.779,1.167-1.559,1.746-2.341C2.529,751.15,2.747,750.864,2.96,750.575z"/>
	
		<linearGradient id="SVGID_00000018233743655760676260000012563830059033989774_" gradientUnits="userSpaceOnUse" x1="4196.2544" y1="4458.77" x2="4502.1719" y2="4704.9961" gradientTransform="matrix(0 -1 -1 0 4583.3076 4730.0693)">
		<stop  offset="0" style="stop-color:#D5B5BA"/>
		<stop  offset="1" style="stop-color:#DB9EA7"/>
	</linearGradient>
	<path style="fill:url(#SVGID_00000018233743655760676260000012563830059033989774_);" d="M89.35,479.988
		c-0.808,5.767-1.573,11.55-2.315,17.341C87.777,491.538,88.542,485.755,89.35,479.988z"/>
	
		<linearGradient id="SVGID_00000032648677269224052120000000913401995031388816_" gradientUnits="userSpaceOnUse" x1="4036.4316" y1="3894.8201" x2="4193.4556" y2="4354.6753" gradientTransform="matrix(0 -1 -1 0 4583.3076 4730.0693)">
		<stop  offset="0" style="stop-color:#D897A1"/>
		<stop  offset="1" style="stop-color:#E0BAC0"/>
	</linearGradient>
	<path style="fill:url(#SVGID_00000032648677269224052120000000913401995031388816_);" d="M89.35,479.988
		c-0.808,5.767-1.573,11.55-2.315,17.341C87.777,491.538,88.542,485.755,89.35,479.988z"/>
	
		<linearGradient id="SVGID_00000078028671068495573970000009675553764223702925_" gradientUnits="userSpaceOnUse" x1="4168.5396" y1="4493.2031" x2="4474.4561" y2="4739.4282" gradientTransform="matrix(0 -1 -1 0 4583.3076 4730.0693)">
		<stop  offset="0" style="stop-color:#D5B5BA"/>
		<stop  offset="1" style="stop-color:#DB9EA7"/>
	</linearGradient>
	<path style="fill:url(#SVGID_00000078028671068495573970000009675553764223702925_);" d="M81.009,545.16
		c-0.384,2.894-0.776,5.785-1.179,8.673C80.233,550.945,80.625,548.054,81.009,545.16z"/>
	
		<linearGradient id="SVGID_00000018918307816606316760000008646303770916284574_" gradientUnits="userSpaceOnUse" x1="3979.572" y1="3914.2451" x2="4136.5938" y2="4374.0938" gradientTransform="matrix(0 -1 -1 0 4583.3076 4730.0693)">
		<stop  offset="0" style="stop-color:#D897A1"/>
		<stop  offset="1" style="stop-color:#E0BAC0"/>
	</linearGradient>
	<path style="fill:url(#SVGID_00000018918307816606316760000008646303770916284574_);" d="M81.009,545.16
		c-0.384,2.894-0.776,5.785-1.179,8.673C80.233,550.945,80.625,548.054,81.009,545.16z"/>
	
		<linearGradient id="SVGID_00000062188966003724466370000003902276627630194056_" gradientUnits="userSpaceOnUse" x1="4206.25" y1="4446.3516" x2="4512.1665" y2="4692.5771" gradientTransform="matrix(0 -1 -1 0 4583.3076 4730.0693)">
		<stop  offset="0" style="stop-color:#D5B5BA"/>
		<stop  offset="1" style="stop-color:#DB9EA7"/>
	</linearGradient>
	<path style="fill:url(#SVGID_00000062188966003724466370000003902276627630194056_);" d="M91.92,462.738
		c-0.456,2.865-0.897,5.736-1.325,8.611C91.023,468.474,91.464,465.603,91.92,462.738z"/>
	
		<linearGradient id="SVGID_00000174587499889599025700000001473612879845928076_" gradientUnits="userSpaceOnUse" x1="4056.7292" y1="3887.896" x2="4213.752" y2="4347.7466" gradientTransform="matrix(0 -1 -1 0 4583.3076 4730.0693)">
		<stop  offset="0" style="stop-color:#D897A1"/>
		<stop  offset="1" style="stop-color:#E0BAC0"/>
	</linearGradient>
	<path style="fill:url(#SVGID_00000174587499889599025700000001473612879845928076_);" d="M91.92,462.738
		c-0.456,2.865-0.897,5.736-1.325,8.611C91.023,468.474,91.464,465.603,91.92,462.738z"/>
	
		<linearGradient id="SVGID_00000090996787430507738110000004994534849093511063_" gradientUnits="userSpaceOnUse" x1="4054.1331" y1="4635.3506" x2="4360.0635" y2="4881.5869" gradientTransform="matrix(0 -1 -1 0 4583.3076 4730.0693)">
		<stop  offset="0" style="stop-color:#D5B5BA"/>
		<stop  offset="1" style="stop-color:#DB9EA7"/>
	</linearGradient>
	<path style="fill:url(#SVGID_00000090996787430507738110000004994534849093511063_);" d="M7.093,744.888
		c-1.143,1.59-2.293,3.173-3.453,4.751C4.798,748.061,5.952,746.479,7.093,744.888z"/>
	
		<linearGradient id="SVGID_00000044868862275471018040000005435510469036527264_" gradientUnits="userSpaceOnUse" x1="3779.512" y1="3982.5813" x2="3936.5286" y2="4442.4141" gradientTransform="matrix(0 -1 -1 0 4583.3076 4730.0693)">
		<stop  offset="0" style="stop-color:#D897A1"/>
		<stop  offset="1" style="stop-color:#E0BAC0"/>
	</linearGradient>
	<path style="fill:url(#SVGID_00000044868862275471018040000005435510469036527264_);" d="M7.093,744.888
		c-1.143,1.59-2.293,3.173-3.453,4.751C4.798,748.061,5.952,746.479,7.093,744.888z"/>
	
		<linearGradient id="SVGID_00000163760714594482664860000011053847172781494707_" gradientUnits="userSpaceOnUse" x1="4125.9141" y1="4546.1621" x2="4431.8325" y2="4792.3887" gradientTransform="matrix(0 -1 -1 0 4583.3076 4730.0693)">
		<stop  offset="0" style="stop-color:#D5B5BA"/>
		<stop  offset="1" style="stop-color:#DB9EA7"/>
	</linearGradient>
	<path style="fill:url(#SVGID_00000163760714594482664860000011053847172781494707_);" d="M57.059,653.391
		c0.802-2.168,1.586-4.344,2.34-6.533c3.276-9.506,6.087-19.165,8.54-28.939c-2.453,9.774-5.264,19.433-8.54,28.939
		C58.643,649.052,57.858,651.226,57.059,653.391z"/>
	
		<linearGradient id="SVGID_00000065065301632812070760000003505206416300077753_" gradientUnits="userSpaceOnUse" x1="3896.9275" y1="3942.4543" x2="4053.9519" y2="4402.3105" gradientTransform="matrix(0 -1 -1 0 4583.3076 4730.0693)">
		<stop  offset="0" style="stop-color:#D897A1"/>
		<stop  offset="1" style="stop-color:#E0BAC0"/>
	</linearGradient>
	<path style="fill:url(#SVGID_00000065065301632812070760000003505206416300077753_);" d="M57.059,653.391
		c0.802-2.168,1.586-4.344,2.34-6.533c3.276-9.506,6.087-19.165,8.54-28.939c-2.453,9.774-5.264,19.433-8.54,28.939
		C58.643,649.052,57.858,651.226,57.059,653.391z"/>
	
		<linearGradient id="SVGID_00000098918632720239251060000000858207328281035424_" gradientUnits="userSpaceOnUse" x1="4566.4131" y1="3998.8757" x2="4872.3306" y2="4245.1021" gradientTransform="matrix(0 -1 -1 0 4583.3076 4730.0693)">
		<stop  offset="0" style="stop-color:#D5B5BA"/>
		<stop  offset="1" style="stop-color:#DB9EA7"/>
	</linearGradient>
	<path style="fill:url(#SVGID_00000098918632720239251060000000858207328281035424_);" d="M470.593,0h0.114
		c-4.764,8.949-9.907,17.542-15.354,25.648C460.829,17.498,465.921,8.912,470.593,0z"/>
	
		<linearGradient id="SVGID_00000175325110607772017020000007975080585185073578_" gradientUnits="userSpaceOnUse" x1="4577.208" y1="3710.1682" x2="4734.231" y2="4170.0205" gradientTransform="matrix(0 -1 -1 0 4583.3076 4730.0693)">
		<stop  offset="0" style="stop-color:#D897A1"/>
		<stop  offset="1" style="stop-color:#E0BAC0"/>
	</linearGradient>
	<path style="fill:url(#SVGID_00000175325110607772017020000007975080585185073578_);" d="M470.593,0h0.114
		c-4.764,8.949-9.907,17.542-15.354,25.648C460.829,17.498,465.921,8.912,470.593,0z"/>
	
		<linearGradient id="SVGID_00000111873800421178419230000012457371453867532175_" gradientUnits="userSpaceOnUse" x1="4224.8066" y1="4423.2959" x2="4530.7241" y2="4669.522" gradientTransform="matrix(0 -1 -1 0 4583.3076 4730.0693)">
		<stop  offset="0" style="stop-color:#D5B5BA"/>
		<stop  offset="1" style="stop-color:#DB9EA7"/>
	</linearGradient>
	<path style="fill:url(#SVGID_00000111873800421178419230000012457371453867532175_);" d="M100.252,420.272
		c-1.35,5.58-2.588,11.199-3.733,16.849C97.663,431.47,98.901,425.852,100.252,420.272z"/>
	
		<linearGradient id="SVGID_00000158018293093687290770000001989323510634928828_" gradientUnits="userSpaceOnUse" x1="4093.2522" y1="3875.4263" x2="4250.2744" y2="4335.2759" gradientTransform="matrix(0 -1 -1 0 4583.3076 4730.0693)">
		<stop  offset="0" style="stop-color:#D897A1"/>
		<stop  offset="1" style="stop-color:#E0BAC0"/>
	</linearGradient>
	<path style="fill:url(#SVGID_00000158018293093687290770000001989323510634928828_);" d="M100.252,420.272
		c-1.35,5.58-2.588,11.199-3.733,16.849C97.663,431.47,98.901,425.852,100.252,420.272z"/>
	
		<linearGradient id="SVGID_00000163061079822072785640000002469580879797343135_" gradientUnits="userSpaceOnUse" x1="4246.6924" y1="4396.0991" x2="4552.6177" y2="4642.332" gradientTransform="matrix(0 -1 -1 0 4583.3076 4730.0693)">
		<stop  offset="0" style="stop-color:#D5B5BA"/>
		<stop  offset="1" style="stop-color:#DB9EA7"/>
	</linearGradient>
	<path style="fill:url(#SVGID_00000163061079822072785640000002469580879797343135_);" d="M111.299,383.265
		c-0.979,2.687-1.918,5.387-2.82,8.1C109.382,388.652,110.321,385.952,111.299,383.265z"/>
	
		<linearGradient id="SVGID_00000122691883978213877870000007297709281246882200_" gradientUnits="userSpaceOnUse" x1="4134.0513" y1="3862.2161" x2="4290.9077" y2="4321.5801" gradientTransform="matrix(0 -1 -1 0 4583.3076 4730.0693)">
		<stop  offset="0" style="stop-color:#D897A1"/>
		<stop  offset="1" style="stop-color:#E0BAC0"/>
	</linearGradient>
	<path style="fill:url(#SVGID_00000122691883978213877870000007297709281246882200_);" d="M111.299,383.265
		c-0.979,2.687-1.918,5.387-2.82,8.1C109.382,388.652,110.321,385.952,111.299,383.265z"/>
	
		<linearGradient id="SVGID_00000008123479060175209630000004322214470711166086_" gradientUnits="userSpaceOnUse" x1="4159.4624" y1="4504.481" x2="4465.3809" y2="4750.7075" gradientTransform="matrix(0 -1 -1 0 4583.3076 4730.0693)">
		<stop  offset="0" style="stop-color:#D5B5BA"/>
		<stop  offset="1" style="stop-color:#DB9EA7"/>
	</linearGradient>
	<path style="fill:url(#SVGID_00000008123479060175209630000004322214470711166086_);" d="M79.83,553.834
		c-1.41,10.109-2.949,20.178-4.723,30.171C76.881,574.011,78.42,563.943,79.83,553.834z"/>
	
		<linearGradient id="SVGID_00000050650631745490235840000014992796073906626471_" gradientUnits="userSpaceOnUse" x1="3961.2722" y1="3920.4832" x2="4118.2969" y2="4380.3394" gradientTransform="matrix(0 -1 -1 0 4583.3076 4730.0693)">
		<stop  offset="0" style="stop-color:#D897A1"/>
		<stop  offset="1" style="stop-color:#E0BAC0"/>
	</linearGradient>
	<path style="fill:url(#SVGID_00000050650631745490235840000014992796073906626471_);" d="M79.83,553.834
		c-1.41,10.109-2.949,20.178-4.723,30.171C76.881,574.011,78.42,563.943,79.83,553.834z"/>
	
		<linearGradient id="SVGID_00000024004091233348375530000010975511576035675540_" gradientUnits="userSpaceOnUse" x1="4113.8501" y1="4561.1509" x2="4419.769" y2="4807.3784" gradientTransform="matrix(0 -1 -1 0 4583.3076 4730.0693)">
		<stop  offset="0" style="stop-color:#D5B5BA"/>
		<stop  offset="1" style="stop-color:#DB9EA7"/>
	</linearGradient>
	<path style="fill:url(#SVGID_00000024004091233348375530000010975511576035675540_);" d="M56.561,654.714
		c-0.722,1.928-1.46,3.844-2.215,5.749C55.104,658.556,55.839,656.638,56.561,654.714z"/>
	
		<linearGradient id="SVGID_00000116228900776448439750000010174619270582858909_" gradientUnits="userSpaceOnUse" x1="3875.1592" y1="3949.9846" x2="4032.1602" y2="4409.772" gradientTransform="matrix(0 -1 -1 0 4583.3076 4730.0693)">
		<stop  offset="0" style="stop-color:#D897A1"/>
		<stop  offset="1" style="stop-color:#E0BAC0"/>
	</linearGradient>
	<path style="fill:url(#SVGID_00000116228900776448439750000010174619270582858909_);" d="M56.561,654.714
		c-0.722,1.928-1.46,3.844-2.215,5.749C55.104,658.556,55.839,656.638,56.561,654.714z"/>
	
		<linearGradient id="SVGID_00000142164981207800676860000007321876889515250105_" gradientUnits="userSpaceOnUse" x1="4148.2227" y1="4518.4458" x2="4454.1416" y2="4764.6733" gradientTransform="matrix(0 -1 -1 0 4583.3076 4730.0693)">
		<stop  offset="0" style="stop-color:#D5B5BA"/>
		<stop  offset="1" style="stop-color:#DB9EA7"/>
	</linearGradient>
	<path style="fill:url(#SVGID_00000142164981207800676860000007321876889515250105_);" d="M75.107,584.005
		c-1.014,5.71-2.105,11.396-3.293,17.051C73.002,595.401,74.092,589.715,75.107,584.005z"/>
	
		<linearGradient id="SVGID_00000095322647002278974640000005769051473646572420_" gradientUnits="userSpaceOnUse" x1="3938.9006" y1="3928.1204" x2="4095.9255" y2="4387.978" gradientTransform="matrix(0 -1 -1 0 4583.3076 4730.0693)">
		<stop  offset="0" style="stop-color:#D897A1"/>
		<stop  offset="1" style="stop-color:#E0BAC0"/>
	</linearGradient>
	<path style="fill:url(#SVGID_00000095322647002278974640000005769051473646572420_);" d="M75.107,584.005
		c-1.014,5.71-2.105,11.396-3.293,17.051C73.002,595.401,74.092,589.715,75.107,584.005z"/>
	
		<linearGradient id="SVGID_00000086681672068887674010000016841029064008756891_" gradientUnits="userSpaceOnUse" x1="4137.6895" y1="4531.5327" x2="4443.6084" y2="4777.7598" gradientTransform="matrix(0 -1 -1 0 4583.3076 4730.0693)">
		<stop  offset="0" style="stop-color:#D5B5BA"/>
		<stop  offset="1" style="stop-color:#DB9EA7"/>
	</linearGradient>
	<path style="fill:url(#SVGID_00000086681672068887674010000016841029064008756891_);" d="M69.956,609.513
		c-0.645,2.81-1.317,5.613-2.018,8.406C68.64,615.126,69.311,612.323,69.956,609.513z"/>
	
		<linearGradient id="SVGID_00000014632811086871639430000012006835698617185962_" gradientUnits="userSpaceOnUse" x1="3918.5513" y1="3935.083" x2="4075.5728" y2="4394.9307" gradientTransform="matrix(0 -1 -1 0 4583.3076 4730.0693)">
		<stop  offset="0" style="stop-color:#D897A1"/>
		<stop  offset="1" style="stop-color:#E0BAC0"/>
	</linearGradient>
	<path style="fill:url(#SVGID_00000014632811086871639430000012006835698617185962_);" d="M69.956,609.513
		c-0.645,2.81-1.317,5.613-2.018,8.406C68.64,615.126,69.311,612.323,69.956,609.513z"/>
	
		<linearGradient id="SVGID_00000156578021992946061750000009566536609153384853_" gradientUnits="userSpaceOnUse" x1="4084.052" y1="4598.1729" x2="4389.9707" y2="4844.3994" gradientTransform="matrix(0 -1 -1 0 4583.3076 4730.0693)">
		<stop  offset="0" style="stop-color:#D5B5BA"/>
		<stop  offset="1" style="stop-color:#DB9EA7"/>
	</linearGradient>
	<path style="fill:url(#SVGID_00000156578021992946061750000009566536609153384853_);" d="M54.134,660.996
		c-12.029,30.198-28.2,57.624-46.721,83.448C26.026,718.44,42.265,690.694,54.134,660.996z"/>
	
		<linearGradient id="SVGID_00000159435664428441965130000012504403205547536547_" gradientUnits="userSpaceOnUse" x1="3827.165" y1="3966.282" x2="3984.188" y2="4426.1338" gradientTransform="matrix(0 -1 -1 0 4583.3076 4730.0693)">
		<stop  offset="0" style="stop-color:#D897A1"/>
		<stop  offset="1" style="stop-color:#E0BAC0"/>
	</linearGradient>
	<path style="fill:url(#SVGID_00000159435664428441965130000012504403205547536547_);" d="M54.134,660.996
		c-12.029,30.198-28.2,57.624-46.721,83.448C26.026,718.44,42.265,690.694,54.134,660.996z"/>
	
		<linearGradient id="SVGID_00000074428327380640077300000014769514791564203152_" gradientUnits="userSpaceOnUse" x1="4050.113" y1="4640.3408" x2="4356.0342" y2="4886.5703" gradientTransform="matrix(0 -1 -1 0 4583.3076 4730.0693)">
		<stop  offset="0" style="stop-color:#D5B5BA"/>
		<stop  offset="1" style="stop-color:#DB9EA7"/>
	</linearGradient>
	<path style="fill:url(#SVGID_00000074428327380640077300000014769514791564203152_);" d="M0.569,753.778
		c0.582-0.78,1.168-1.558,1.746-2.341C1.736,752.22,1.153,752.999,0.569,753.778z"/>
	
		<linearGradient id="SVGID_00000151535301915403660540000008877037893198550157_" gradientUnits="userSpaceOnUse" x1="3773.5234" y1="3984.6199" x2="3930.5415" y2="4444.457" gradientTransform="matrix(0 -1 -1 0 4583.3076 4730.0693)">
		<stop  offset="0" style="stop-color:#D897A1"/>
		<stop  offset="1" style="stop-color:#E0BAC0"/>
	</linearGradient>
	<path style="fill:url(#SVGID_00000151535301915403660540000008877037893198550157_);" d="M0.569,753.778
		c0.582-0.78,1.168-1.558,1.746-2.341C1.736,752.22,1.153,752.999,0.569,753.778z"/>
	
		<linearGradient id="SVGID_00000039825713675835245400000010000354804806521278_" gradientUnits="userSpaceOnUse" x1="4141.9502" y1="4526.2383" x2="4447.8667" y2="4772.4634" gradientTransform="matrix(0 -1 -1 0 4583.3076 4730.0693)">
		<stop  offset="0" style="stop-color:#D5B5BA"/>
		<stop  offset="1" style="stop-color:#DB9EA7"/>
	</linearGradient>
	<path style="fill:url(#SVGID_00000039825713675835245400000010000354804806521278_);" d="M71.813,601.055
		c-0.594,2.827-1.212,5.647-1.857,8.458C70.601,606.702,71.219,603.882,71.813,601.055z"/>
	
		<linearGradient id="SVGID_00000132052121869033712390000001523114618275940525_" gradientUnits="userSpaceOnUse" x1="3926.6985" y1="3932.3125" x2="4083.7173" y2="4392.1519" gradientTransform="matrix(0 -1 -1 0 4583.3076 4730.0693)">
		<stop  offset="0" style="stop-color:#D897A1"/>
		<stop  offset="1" style="stop-color:#E0BAC0"/>
	</linearGradient>
	<path style="fill:url(#SVGID_00000132052121869033712390000001523114618275940525_);" d="M71.813,601.055
		c-0.594,2.827-1.212,5.647-1.857,8.458C70.601,606.702,71.219,603.882,71.813,601.055z"/>
	
		<linearGradient id="SVGID_00000081618879006714191920000013003181455947990685_" gradientUnits="userSpaceOnUse" x1="4215.4175" y1="4434.9614" x2="4521.3345" y2="4681.187" gradientTransform="matrix(0 -1 -1 0 4583.3076 4730.0693)">
		<stop  offset="0" style="stop-color:#D5B5BA"/>
		<stop  offset="1" style="stop-color:#DB9EA7"/>
	</linearGradient>
	<path style="fill:url(#SVGID_00000081618879006714191920000013003181455947990685_);" d="M95.676,441.364
		c-0.825,4.249-1.602,8.515-2.337,12.795C94.074,449.879,94.851,445.613,95.676,441.364z"/>
	
		<linearGradient id="SVGID_00000025411066457939398880000016826189736556521606_" gradientUnits="userSpaceOnUse" x1="4074.9939" y1="3881.668" x2="4232.0146" y2="4341.5127" gradientTransform="matrix(0 -1 -1 0 4583.3076 4730.0693)">
		<stop  offset="0" style="stop-color:#D897A1"/>
		<stop  offset="1" style="stop-color:#E0BAC0"/>
	</linearGradient>
	<path style="fill:url(#SVGID_00000025411066457939398880000016826189736556521606_);" d="M95.676,441.364
		c-0.825,4.249-1.602,8.515-2.337,12.795C94.074,449.879,94.851,445.613,95.676,441.364z"/>
	
		<linearGradient id="SVGID_00000052066375385890738130000013633494442202920094_" gradientUnits="userSpaceOnUse" x1="4114.2837" y1="3517.3853" x2="4135.9839" y2="3945.9592" gradientTransform="matrix(0 -1 -1 0 4583.3076 4730.0693)">
		<stop  offset="0" style="stop-color:#E3ADB4"/>
		<stop  offset="1" style="stop-color:#E9D8DB"/>
	</linearGradient>
	<path style="fill:url(#SVGID_00000052066375385890738130000013633494442202920094_);" d="M681.968,1121.973
		c-0.547-1.472-1.096-2.942-1.648-4.413c-1.119-2.983-2.247-5.964-3.383-8.942c-0.264-0.691-0.526-1.382-0.791-2.072
		c-1.494-3.899-3.001-7.794-4.521-11.685c-1.997-5.111-4.017-10.213-6.054-15.31c-1.846-4.619-3.707-9.233-5.582-13.842
		c-0.622-1.529-1.245-3.057-1.869-4.585c-1.735-4.245-3.481-8.486-5.235-12.723c-1.836-4.435-3.682-8.867-5.535-13.295
		c-6.125-14.633-12.331-29.229-18.548-43.806c-1.531-3.589-3.062-7.177-4.593-10.765c-1.049-2.456-2.097-4.913-3.144-7.369
		c-0.854-2.003-1.708-4.006-2.562-6.008c-2.997-7.032-5.988-14.063-8.963-21.093c-0.868-2.052-1.735-4.103-2.601-6.155
		c-2.597-6.155-5.18-12.311-7.744-18.468c-56.195-134.934-105.045-282.1-85.594-429.22
		c18.77-141.972,98.107-263.189,167.924-383.874C701.664,73.534,721.346,37.317,738.796,0H800v1200h-91.691
		c-0.734-2.457-1.478-4.91-2.23-7.361c-0.675-2.2-1.357-4.398-2.046-6.593C697.275,1164.507,689.85,1143.166,681.968,1121.973z"/>
	
		<linearGradient id="SVGID_00000128479646032131593810000015960534093222028446_" gradientUnits="userSpaceOnUse" x1="4133.2388" y1="4132.3535" x2="4122.3994" y2="3677.0791" gradientTransform="matrix(0 -1 -1 0 4583.3076 4730.0693)">
		<stop  offset="0" style="stop-color:#E4CED1"/>
		<stop  offset="1" style="stop-color:#DB9EA7"/>
	</linearGradient>
	<path style="fill:url(#SVGID_00000128479646032131593810000015960534093222028446_);" d="M424.105,1138.579
		c-0.837-6.792-1.757-13.572-2.764-20.34c-0.028-0.188-0.057-0.375-0.085-0.562c-0.479-3.205-0.976-6.406-1.493-9.604
		c-0.026-0.159-0.051-0.319-0.076-0.478c-1.053-6.485-2.187-12.957-3.399-19.414c-0.112-0.596-0.224-1.191-0.338-1.787
		c-0.545-2.871-1.104-5.739-1.682-8.604c-0.059-0.291-0.115-0.583-0.173-0.873c-0.63-3.107-1.28-6.21-1.947-9.31
		c-0.145-0.675-0.295-1.348-0.442-2.022c-0.528-2.423-1.067-4.843-1.618-7.26c-0.189-0.832-0.378-1.663-0.57-2.494
		c-0.699-3.023-1.41-6.043-2.145-9.058c-41.091-168.54-135.443-334.18-100.525-504.431c19.554-95.341,77.65-174.79,138.708-245.167
		s127.76-136.857,171.911-221.428C629.821,52.082,640.118,26.479,647.637,0h91.159c-17.45,37.317-37.132,73.534-57.273,108.349
		C611.707,229.034,532.37,350.251,513.6,492.223c-19.451,147.12,29.399,294.286,85.594,429.22
		c2.565,6.157,5.148,12.313,7.744,18.468c0.866,2.052,1.732,4.104,2.601,6.155c2.975,7.03,5.966,14.061,8.963,21.093
		c0.854,2.002,1.708,4.005,2.562,6.008c1.048,2.456,2.096,4.913,3.144,7.369c1.531,3.587,3.062,7.175,4.593,10.765
		c6.217,14.577,12.423,29.173,18.548,43.806c1.853,4.428,3.699,8.86,5.535,13.295c1.755,4.237,3.5,8.479,5.235,12.723
		c0.625,1.528,1.248,3.056,1.869,4.585c1.874,4.609,3.735,9.223,5.582,13.842c2.037,5.097,4.057,10.199,6.054,15.31
		c1.52,3.891,3.027,7.786,4.521,11.685c0.265,0.69,0.527,1.382,0.791,2.072c1.137,2.978,2.264,5.958,3.383,8.942
		c0.552,1.47,1.101,2.941,1.648,4.413c7.883,21.193,15.307,42.534,22.066,64.072c0.689,2.196,1.371,4.393,2.046,6.593
		c0.752,2.451,1.496,4.905,2.23,7.361H429.353c-0.991-20.504-2.733-40.971-5.239-61.343
		C424.111,1138.631,424.108,1138.605,424.105,1138.579z"/>
	
		<linearGradient id="SVGID_00000052815269386899770150000005518650813268604551_" gradientUnits="userSpaceOnUse" x1="3591.6741" y1="4046.6929" x2="3748.6973" y2="4506.5459" gradientTransform="matrix(0 -1 -1 0 4583.3076 4730.0693)">
		<stop  offset="0" style="stop-color:#D897A1"/>
		<stop  offset="1" style="stop-color:#E0BAC0"/>
	</linearGradient>
	<path style="fill:url(#SVGID_00000052815269386899770150000005518650813268604551_);" d="M416.288,1088.182
		c1.212,6.457,2.346,12.929,3.399,19.414C418.634,1101.108,417.499,1094.636,416.288,1088.182z"/>
	
		<linearGradient id="SVGID_00000039842272227761875680000015484799055351905443_" gradientUnits="userSpaceOnUse" x1="3631.6804" y1="4144.2949" x2="3620.8406" y2="3689.0151" gradientTransform="matrix(0 -1 -1 0 4583.3076 4730.0693)">
		<stop  offset="0" style="stop-color:#E4CED1"/>
		<stop  offset="1" style="stop-color:#DB9EA7"/>
	</linearGradient>
	<path style="fill:url(#SVGID_00000039842272227761875680000015484799055351905443_);" d="M416.288,1088.182
		c1.212,6.457,2.346,12.929,3.399,19.414C418.634,1101.108,417.499,1094.636,416.288,1088.182z"/>
	
		<linearGradient id="SVGID_00000158727662194249273320000014533585658254089144_" gradientUnits="userSpaceOnUse" x1="3579.0239" y1="4051.0134" x2="3736.0464" y2="4510.8633" gradientTransform="matrix(0 -1 -1 0 4583.3076 4730.0693)">
		<stop  offset="0" style="stop-color:#D897A1"/>
		<stop  offset="1" style="stop-color:#E0BAC0"/>
	</linearGradient>
	<path style="fill:url(#SVGID_00000158727662194249273320000014533585658254089144_);" d="M419.763,1108.073
		c0.517,3.198,1.014,6.4,1.493,9.604C420.778,1114.472,420.28,1111.271,419.763,1108.073z"/>
	
		<linearGradient id="SVGID_00000076583055724812855650000009931137892281380027_" gradientUnits="userSpaceOnUse" x1="3616.7622" y1="4144.6504" x2="3605.9226" y2="3689.3767" gradientTransform="matrix(0 -1 -1 0 4583.3076 4730.0693)">
		<stop  offset="0" style="stop-color:#E4CED1"/>
		<stop  offset="1" style="stop-color:#DB9EA7"/>
	</linearGradient>
	<path style="fill:url(#SVGID_00000076583055724812855650000009931137892281380027_);" d="M419.763,1108.073
		c0.517,3.198,1.014,6.4,1.493,9.604C420.778,1114.472,420.28,1111.271,419.763,1108.073z"/>
	
		<linearGradient id="SVGID_00000127729728827213953180000012649858328765749897_" gradientUnits="userSpaceOnUse" x1="3530.3684" y1="4067.627" x2="3687.3918" y2="4527.48" gradientTransform="matrix(0 -1 -1 0 4583.3076 4730.0693)">
		<stop  offset="0" style="stop-color:#D897A1"/>
		<stop  offset="1" style="stop-color:#E0BAC0"/>
	</linearGradient>
	<path style="fill:url(#SVGID_00000127729728827213953180000012649858328765749897_);" d="M429.353,1200h-0.003
		c-0.994-20.518-2.733-40.988-5.236-61.343C426.621,1159.028,428.362,1179.496,429.353,1200z"/>
	
		<linearGradient id="SVGID_00000018931633318062335900000009890075394853296770_" gradientUnits="userSpaceOnUse" x1="3560.489" y1="4145.9902" x2="3549.6494" y2="3690.7151" gradientTransform="matrix(0 -1 -1 0 4583.3076 4730.0693)">
		<stop  offset="0" style="stop-color:#E4CED1"/>
		<stop  offset="1" style="stop-color:#DB9EA7"/>
	</linearGradient>
	<path style="fill:url(#SVGID_00000018931633318062335900000009890075394853296770_);" d="M429.353,1200h-0.003
		c-0.994-20.518-2.733-40.988-5.236-61.343C426.621,1159.028,428.362,1179.496,429.353,1200z"/>
	
		<linearGradient id="SVGID_00000174596766996883184590000011820798653838280860_" gradientUnits="userSpaceOnUse" x1="3565.7888" y1="4055.5317" x2="3722.8123" y2="4515.3848" gradientTransform="matrix(0 -1 -1 0 4583.3076 4730.0693)">
		<stop  offset="0" style="stop-color:#D897A1"/>
		<stop  offset="1" style="stop-color:#E0BAC0"/>
	</linearGradient>
	<path style="fill:url(#SVGID_00000174596766996883184590000011820798653838280860_);" d="M421.341,1118.239
		c1.007,6.768,1.927,13.548,2.764,20.34C423.269,1131.785,422.347,1125.005,421.341,1118.239z"/>
	
		<linearGradient id="SVGID_00000041996296447847635220000014892922981740398490_" gradientUnits="userSpaceOnUse" x1="3601.2898" y1="4145.0186" x2="3590.4502" y2="3689.7383" gradientTransform="matrix(0 -1 -1 0 4583.3076 4730.0693)">
		<stop  offset="0" style="stop-color:#E4CED1"/>
		<stop  offset="1" style="stop-color:#DB9EA7"/>
	</linearGradient>
	<path style="fill:url(#SVGID_00000041996296447847635220000014892922981740398490_);" d="M421.341,1118.239
		c1.007,6.768,1.927,13.548,2.764,20.34C423.269,1131.785,422.347,1125.005,421.341,1118.239z"/>
	
		<linearGradient id="SVGID_00000016042493962857474630000011586681416548290470_" gradientUnits="userSpaceOnUse" x1="3604.9397" y1="4042.1619" x2="3761.9646" y2="4502.02" gradientTransform="matrix(0 -1 -1 0 4583.3076 4730.0693)">
		<stop  offset="0" style="stop-color:#D897A1"/>
		<stop  offset="1" style="stop-color:#E0BAC0"/>
	</linearGradient>
	<path style="fill:url(#SVGID_00000016042493962857474630000011586681416548290470_);" d="M414.268,1077.791
		c0.577,2.865,1.136,5.733,1.682,8.604C415.405,1083.523,414.845,1080.655,414.268,1077.791z"/>
	
		<linearGradient id="SVGID_00000149377560586525573880000009077398441534869439_" gradientUnits="userSpaceOnUse" x1="3647.3984" y1="4143.9204" x2="3636.5586" y2="3688.6299" gradientTransform="matrix(0 -1 -1 0 4583.3076 4730.0693)">
		<stop  offset="0" style="stop-color:#E4CED1"/>
		<stop  offset="1" style="stop-color:#DB9EA7"/>
	</linearGradient>
	<path style="fill:url(#SVGID_00000149377560586525573880000009077398441534869439_);" d="M414.268,1077.791
		c0.577,2.865,1.136,5.733,1.682,8.604C415.405,1083.523,414.845,1080.655,414.268,1077.791z"/>
	
		<linearGradient id="SVGID_00000050645615056469373880000009764882912554145422_" gradientUnits="userSpaceOnUse" x1="3613.1343" y1="4039.3606" x2="3770.157" y2="4499.2119" gradientTransform="matrix(0 -1 -1 0 4583.3076 4730.0693)">
		<stop  offset="0" style="stop-color:#D897A1"/>
		<stop  offset="1" style="stop-color:#E0BAC0"/>
	</linearGradient>
	<path style="fill:url(#SVGID_00000050645615056469373880000009764882912554145422_);" d="M412.149,1067.608
		c0.667,3.1,1.317,6.203,1.947,9.31C413.466,1073.81,412.815,1070.707,412.149,1067.608z"/>
	
		<linearGradient id="SVGID_00000114031902980547275250000006467840644656229303_" gradientUnits="userSpaceOnUse" x1="3657.1755" y1="4143.6885" x2="3646.3359" y2="3688.4189" gradientTransform="matrix(0 -1 -1 0 4583.3076 4730.0693)">
		<stop  offset="0" style="stop-color:#E4CED1"/>
		<stop  offset="1" style="stop-color:#DB9EA7"/>
	</linearGradient>
	<path style="fill:url(#SVGID_00000114031902980547275250000006467840644656229303_);" d="M412.149,1067.608
		c0.667,3.1,1.317,6.203,1.947,9.31C413.466,1073.81,412.815,1070.707,412.149,1067.608z"/>
	
		<linearGradient id="SVGID_00000070799972114662380270000005806182552721467781_" gradientUnits="userSpaceOnUse" x1="3630.4778" y1="4033.4431" x2="3787.5012" y2="4493.2964" gradientTransform="matrix(0 -1 -1 0 4583.3076 4730.0693)">
		<stop  offset="0" style="stop-color:#D897A1"/>
		<stop  offset="1" style="stop-color:#E0BAC0"/>
	</linearGradient>
	<path style="fill:url(#SVGID_00000070799972114662380270000005806182552721467781_);" d="M407.374,1046.773
		c0.735,3.015,1.446,6.035,2.145,9.058C408.82,1052.808,408.109,1049.787,407.374,1046.773z"/>
	
		<linearGradient id="SVGID_00000021098752262369190140000004577548570452976791_" gradientUnits="userSpaceOnUse" x1="3678.0129" y1="4143.1914" x2="3667.1731" y2="3687.9106" gradientTransform="matrix(0 -1 -1 0 4583.3076 4730.0693)">
		<stop  offset="0" style="stop-color:#E4CED1"/>
		<stop  offset="1" style="stop-color:#DB9EA7"/>
	</linearGradient>
	<path style="fill:url(#SVGID_00000021098752262369190140000004577548570452976791_);" d="M407.374,1046.773
		c0.735,3.015,1.446,6.035,2.145,9.058C408.82,1052.808,408.109,1049.787,407.374,1046.773z"/>
	
		<linearGradient id="SVGID_00000065762426359625307130000004736554647001508541_" gradientUnits="userSpaceOnUse" x1="3621.6865" y1="4036.4456" x2="3778.7087" y2="4496.2954" gradientTransform="matrix(0 -1 -1 0 4583.3076 4730.0693)">
		<stop  offset="0" style="stop-color:#D897A1"/>
		<stop  offset="1" style="stop-color:#E0BAC0"/>
	</linearGradient>
	<path style="fill:url(#SVGID_00000065762426359625307130000004736554647001508541_);" d="M410.089,1058.326
		c0.551,2.417,1.09,4.837,1.618,7.26C411.179,1063.163,410.639,1060.743,410.089,1058.326z"/>
	
		<linearGradient id="SVGID_00000169524235308522011020000003306415359344220854_" gradientUnits="userSpaceOnUse" x1="3667.4238" y1="4143.4443" x2="3656.5842" y2="3688.1731" gradientTransform="matrix(0 -1 -1 0 4583.3076 4730.0693)">
		<stop  offset="0" style="stop-color:#E4CED1"/>
		<stop  offset="1" style="stop-color:#DB9EA7"/>
	</linearGradient>
	<path style="fill:url(#SVGID_00000169524235308522011020000003306415359344220854_);" d="M410.089,1058.326
		c0.551,2.417,1.09,4.837,1.618,7.26C411.179,1063.163,410.639,1060.743,410.089,1058.326z"/>
	
		<linearGradient id="SVGID_00000132082557861673648610000001745265688214682510_" gradientUnits="userSpaceOnUse" x1="3592.1584" y1="3543.8208" x2="3613.8586" y2="3972.3979" gradientTransform="matrix(0 -1 -1 0 4583.3076 4730.0693)">
		<stop  offset="0" style="stop-color:#E3ADB4"/>
		<stop  offset="1" style="stop-color:#E9D8DB"/>
	</linearGradient>
	<path style="fill:url(#SVGID_00000132082557861673648610000001745265688214682510_);" d="M680.319,1117.561
		c0.552,1.47,1.101,2.941,1.648,4.413C681.42,1120.502,680.871,1119.031,680.319,1117.561z"/>
	
		<linearGradient id="SVGID_00000166661016783995885070000000843054234930385547_" gradientUnits="userSpaceOnUse" x1="3616.0762" y1="4144.6675" x2="3605.2366" y2="3689.3896" gradientTransform="matrix(0 -1 -1 0 4583.3076 4730.0693)">
		<stop  offset="0" style="stop-color:#E4CED1"/>
		<stop  offset="1" style="stop-color:#DB9EA7"/>
	</linearGradient>
	<path style="fill:url(#SVGID_00000166661016783995885070000000843054234930385547_);" d="M680.319,1117.561
		c0.552,1.47,1.101,2.941,1.648,4.413C681.42,1120.502,680.871,1119.031,680.319,1117.561z"/>
	
		<linearGradient id="SVGID_00000149359649107707734600000011650661530535608479_" gradientUnits="userSpaceOnUse" x1="3523.969" y1="3547.2749" x2="3545.6692" y2="3975.8501" gradientTransform="matrix(0 -1 -1 0 4583.3076 4730.0693)">
		<stop  offset="0" style="stop-color:#E3ADB4"/>
		<stop  offset="1" style="stop-color:#E9D8DB"/>
	</linearGradient>
	<path style="fill:url(#SVGID_00000149359649107707734600000011650661530535608479_);" d="M706.08,1192.639
		c-0.675-2.2-1.357-4.398-2.046-6.593C704.723,1188.241,705.404,1190.439,706.08,1192.639z"/>
	
		<linearGradient id="SVGID_00000044886774969933281410000009775401124443133887_" gradientUnits="userSpaceOnUse" x1="3547.1096" y1="4146.3086" x2="3536.27" y2="3691.0325" gradientTransform="matrix(0 -1 -1 0 4583.3076 4730.0693)">
		<stop  offset="0" style="stop-color:#E4CED1"/>
		<stop  offset="1" style="stop-color:#DB9EA7"/>
	</linearGradient>
	<path style="fill:url(#SVGID_00000044886774969933281410000009775401124443133887_);" d="M706.08,1192.639
		c-0.675-2.2-1.357-4.398-2.046-6.593C704.723,1188.241,705.404,1190.439,706.08,1192.639z"/>
	
		<linearGradient id="SVGID_00000064346410934362174730000007415813217026336687_" gradientUnits="userSpaceOnUse" x1="3604.0784" y1="3543.2065" x2="3625.7793" y2="3971.7961" gradientTransform="matrix(0 -1 -1 0 4583.3076 4730.0693)">
		<stop  offset="0" style="stop-color:#E3ADB4"/>
		<stop  offset="1" style="stop-color:#E9D8DB"/>
	</linearGradient>
	<path style="fill:url(#SVGID_00000064346410934362174730000007415813217026336687_);" d="M676.145,1106.547
		c0.265,0.69,0.527,1.382,0.791,2.072C676.672,1107.928,676.41,1107.237,676.145,1106.547z"/>
	
		<linearGradient id="SVGID_00000183212897264360462930000014631253114351095212_" gradientUnits="userSpaceOnUse" x1="3628.144" y1="4144.3877" x2="3617.304" y2="3689.0955" gradientTransform="matrix(0 -1 -1 0 4583.3076 4730.0693)">
		<stop  offset="0" style="stop-color:#E4CED1"/>
		<stop  offset="1" style="stop-color:#DB9EA7"/>
	</linearGradient>
	<path style="fill:url(#SVGID_00000183212897264360462930000014631253114351095212_);" d="M676.145,1106.547
		c0.265,0.69,0.527,1.382,0.791,2.072C676.672,1107.928,676.41,1107.237,676.145,1106.547z"/>
	
		<linearGradient id="SVGID_00000009574331202161764950000005001708750945946273_" gradientUnits="userSpaceOnUse" x1="3647.2483" y1="3541.0305" x2="3668.9485" y2="3969.6084" gradientTransform="matrix(0 -1 -1 0 4583.3076 4730.0693)">
		<stop  offset="0" style="stop-color:#E3ADB4"/>
		<stop  offset="1" style="stop-color:#E9D8DB"/>
	</linearGradient>
	<path style="fill:url(#SVGID_00000009574331202161764950000005001708750945946273_);" d="M658.119,1061.125
		c0.625,1.528,1.248,3.056,1.869,4.585C659.367,1064.181,658.744,1062.653,658.119,1061.125z"/>
	
		<linearGradient id="SVGID_00000065039410499545005620000014680614790725542812_" gradientUnits="userSpaceOnUse" x1="3671.8682" y1="4143.3398" x2="3661.0286" y2="3688.0605" gradientTransform="matrix(0 -1 -1 0 4583.3076 4730.0693)">
		<stop  offset="0" style="stop-color:#E4CED1"/>
		<stop  offset="1" style="stop-color:#DB9EA7"/>
	</linearGradient>
	<path style="fill:url(#SVGID_00000065039410499545005620000014680614790725542812_);" d="M658.119,1061.125
		c0.625,1.528,1.248,3.056,1.869,4.585C659.367,1064.181,658.744,1062.653,658.119,1061.125z"/>
	
		<linearGradient id="SVGID_00000018935108162256292030000014033657914669709469_" gradientUnits="userSpaceOnUse" x1="3738.281" y1="3536.425" x2="3759.981" y2="3964.9988" gradientTransform="matrix(0 -1 -1 0 4583.3076 4730.0693)">
		<stop  offset="0" style="stop-color:#E3ADB4"/>
		<stop  offset="1" style="stop-color:#E9D8DB"/>
	</linearGradient>
	<path style="fill:url(#SVGID_00000018935108162256292030000014033657914669709469_);" d="M618.502,967.159
		c0.854,2.002,1.708,4.005,2.562,6.008C620.209,971.164,619.355,969.161,618.502,967.159z"/>
	
		<linearGradient id="SVGID_00000050645928984325958440000003057419746892603796_" gradientUnits="userSpaceOnUse" x1="3764.1353" y1="4141.1406" x2="3753.2957" y2="3685.8665" gradientTransform="matrix(0 -1 -1 0 4583.3076 4730.0693)">
		<stop  offset="0" style="stop-color:#E4CED1"/>
		<stop  offset="1" style="stop-color:#DB9EA7"/>
	</linearGradient>
	<path style="fill:url(#SVGID_00000050645928984325958440000003057419746892603796_);" d="M618.502,967.159
		c0.854,2.002,1.708,4.005,2.562,6.008C620.209,971.164,619.355,969.161,618.502,967.159z"/>
	
		<linearGradient id="SVGID_00000010996932604924558000000007108551597247626156_" gradientUnits="userSpaceOnUse" x1="3722.905" y1="3537.1997" x2="3744.6052" y2="3965.7776" gradientTransform="matrix(0 -1 -1 0 4583.3076 4730.0693)">
		<stop  offset="0" style="stop-color:#E3ADB4"/>
		<stop  offset="1" style="stop-color:#E9D8DB"/>
	</linearGradient>
	<path style="fill:url(#SVGID_00000010996932604924558000000007108551597247626156_);" d="M624.208,980.536
		c1.531,3.587,3.062,7.175,4.593,10.765C627.27,987.711,625.739,984.124,624.208,980.536z"/>
	
		<linearGradient id="SVGID_00000146479185268625563010000001739949459943979683_" gradientUnits="userSpaceOnUse" x1="3748.5486" y1="4141.5137" x2="3737.7087" y2="3686.2349" gradientTransform="matrix(0 -1 -1 0 4583.3076 4730.0693)">
		<stop  offset="0" style="stop-color:#E4CED1"/>
		<stop  offset="1" style="stop-color:#DB9EA7"/>
	</linearGradient>
	<path style="fill:url(#SVGID_00000146479185268625563010000001739949459943979683_);" d="M624.208,980.536
		c1.531,3.587,3.062,7.175,4.593,10.765C627.27,987.711,625.739,984.124,624.208,980.536z"/>
	
		<linearGradient id="SVGID_00000048496385416316190720000013268795747290533309_" gradientUnits="userSpaceOnUse" x1="3668.4048" y1="3539.9587" x2="3690.105" y2="3968.5374" gradientTransform="matrix(0 -1 -1 0 4583.3076 4730.0693)">
		<stop  offset="0" style="stop-color:#E3ADB4"/>
		<stop  offset="1" style="stop-color:#E9D8DB"/>
	</linearGradient>
	<path style="fill:url(#SVGID_00000048496385416316190720000013268795747290533309_);" d="M647.349,1035.107
		c1.853,4.428,3.699,8.86,5.535,13.295C651.048,1043.966,649.202,1039.535,647.349,1035.107z"/>
	
		<linearGradient id="SVGID_00000049198786410322648200000007801367720414092675_" gradientUnits="userSpaceOnUse" x1="3693.3066" y1="4142.8291" x2="3682.4668" y2="3687.5493" gradientTransform="matrix(0 -1 -1 0 4583.3076 4730.0693)">
		<stop  offset="0" style="stop-color:#E4CED1"/>
		<stop  offset="1" style="stop-color:#DB9EA7"/>
	</linearGradient>
	<path style="fill:url(#SVGID_00000049198786410322648200000007801367720414092675_);" d="M647.349,1035.107
		c1.853,4.428,3.699,8.86,5.535,13.295C651.048,1043.966,649.202,1039.535,647.349,1035.107z"/>
	
		<linearGradient id="SVGID_00000160896673447204886680000003665861085922743196_" gradientUnits="userSpaceOnUse" x1="3624.0017" y1="3542.2129" x2="3645.7017" y2="3970.7844" gradientTransform="matrix(0 -1 -1 0 4583.3076 4730.0693)">
		<stop  offset="0" style="stop-color:#E3ADB4"/>
		<stop  offset="1" style="stop-color:#E9D8DB"/>
	</linearGradient>
	<path style="fill:url(#SVGID_00000160896673447204886680000003665861085922743196_);" d="M665.57,1079.552
		c2.037,5.097,4.057,10.199,6.054,15.31C669.627,1089.751,667.607,1084.649,665.57,1079.552z"/>
	
		<linearGradient id="SVGID_00000039846172656996227070000001908937069025582226_" gradientUnits="userSpaceOnUse" x1="3648.3191" y1="4143.897" x2="3637.4795" y2="3688.6248" gradientTransform="matrix(0 -1 -1 0 4583.3076 4730.0693)">
		<stop  offset="0" style="stop-color:#E4CED1"/>
		<stop  offset="1" style="stop-color:#DB9EA7"/>
	</linearGradient>
	<path style="fill:url(#SVGID_00000039846172656996227070000001908937069025582226_);" d="M665.57,1079.552
		c2.037,5.097,4.057,10.199,6.054,15.31C669.627,1089.751,667.607,1084.649,665.57,1079.552z"/>
</g>
</svg>
